<?xml version="1.0" encoding="UTF-8"?>
<svg id="_レイヤー_1" xmlns="http://www.w3.org/2000/svg" version="1.1" viewBox="0 0 263.95 108.15">
  <!-- Generator: Adobe Illustrator 29.7.1, SVG Export Plug-In . SVG Version: 2.1.1 Build 8)  -->
  <defs>
    <style>
      .st0 {
        fill: #f4b008;
      }

      .st1 {
        fill: #5ca905;
      }
    </style>
  </defs>
  <path class="st1" d="M172.07,92.47c2.3-.2,4.1-.6,5.4-1.2,1.3-.6,2.4-1.3,3.1-2,.7-.8,1.2-1.6,1.4-2.5s.3-1.8.3-2.6v-51.1c0-1.6,0-3-.3-4.2-.2-1.2-.6-2.3-1.3-3.1-.7-.9-1.7-1.6-3.1-2.1-1.4-.5-3.3-.9-5.6-1.1v-1.3c1.8,0,3.6.3,5.4.3h5.4c4.8,0,9.3-.3,13.5-.8,4.1-.5,8.4-.8,12.8-.8s10.9.9,15.8,2.8c4.9,1.8,9.2,4.5,12.9,7.9,3.7,3.4,6.6,7.6,8.8,12.4,2.1,4.9,3.2,10.3,3.2,16.3s-1,11.3-3.1,15.6c-2.1,4.3-4.8,7.8-8.3,10.6-3.5,2.8-7.4,4.8-11.9,6-4.5,1.3-9.1,1.9-14,1.9h-33.6c-2.3,0-4.6.2-7,.3v-1.3l.2-.2v.2ZM191.67,84.97c2.2,2.2,4.8,3.8,7.6,4.6,2.9.9,5.8,1.3,8.7,1.3,10.6,0,18.4-2.9,23.3-8.7,4.9-5.8,7.3-14.2,7.3-25.3s-.8-9.3-2.4-13.4c-1.6-4.2-3.9-7.8-6.7-10.9-2.9-3.1-6.3-5.5-10.3-7.3s-8.3-2.6-13-2.6-9.4,1-13.8,3.1c-.3,3.8-.5,7.6-.5,11.4s-.1,7.7-.1,11.6v36.1h-.1v.1Z"/>
  <path class="st1" d="M185.07,86.97c1.3-.5,2-1.8,2-3.4v-.7h0c-.1-2.2-1.2-4-2.9-5,.2,0,.3-.2.5-.3.7-.5,1.5-2,1.3-4.6,0-.4,0-.8-.1-1.1.5,0,1.4,0,2-.6.4-.4.7-1,.7-1.8v-1.2c-.2-2.3-1.2-3.7-3.6-4.6-2.3-.9-2.9-1.9-3.9-3.5l-.2-.3c-.3-.5-.4-.9-.5-1.3,0-.9.5-1.4.5-1.4.1,0,.2-.2.3-.2.3-.2.6-.3.8-.5h0c-.1.7-.2,1.4-.1,2.1,0,1.5.6,2.7,1.4,3.7,1,1.1,2.3,1.4,3.5.8,1.4-.7,2.3-2.4,2.2-4.2,0-1.2-.5-1.9-.9-2.3-.4-.4-1-.7-1.6-.6-.7,0-1.4.6-1.3,1.7h0s.4-1.1,1.3-.8c.9.3,1.1,1.3,1.1,1.8v.5c-.1,1.2-.7,2.7-2.7,2.7s-2.4-1.8-2.5-3.6v-1.1c.2-.7.3-1.3.5-1.7,0-.2.1-.3.2-.5v-.2h0v-.2h0c.2-.7.3-1.3.4-2,.2.4.5,1,1.1,1.2.5,0,.9,0,1.4-.6.4-.5.7-1.1.8-2,.2,0,1.1,0,1.7-.8.4-.5.6-1.3.5-2.2.2,0,.9,0,1.4-.3.5-.5.7-1.3.6-2.6v-.9c-.6-4.3-5-9.6-9.1-12.7-.2-.2-.4-.4-.7-.5-.5-.4-1-.8-1.5-1.3-.8-.7-1.3-1.7-1.3-2.8-.2-2.4,1.4-4.8,1.4-4.8,1.1-1.4,2.7-2,4.1-1.6,1.2.4,2,1.5,2.3,3.2v.7c.1,2-1,3-2.1,3.1-.9.1-2-.5-2.2-1.9-.2-1.8,1.5-2.1,1.5-2.1h0c0-.2,0-.1,0-.1,0,0-1.1,0-1.8.8-.4.4-.5,1-.5,1.8,0,1.2,1.1,2.1,2.4,2.2,1.2,0,2.7-.5,3-2.6,0-.5.1-1,0-1.6-.2-2.7-2.1-4.8-4.5-4.9-2,0-4,1.9-4.6,4.7-1,.2-2.2-.1-3.2-.9-.8-.7-1.3-1.7-1.4-2.7,0-1.4.7-2.7,1.7-3.2.8-.4,1.7-.2,2.4.5.2.3.3.6.3.9,0,.7-.2,1.4-.7,1.6-.3.2-.7,0-1.1-.2h-.1s1,1.3,2,.4c.4-.4.6-1,.6-1.8s-.5-2-1.7-2.4c-.8-.2-1.9,0-2.7.9-1,.9-1.5,2.2-1.4,3.5,0,.5.2,1,.4,1.5.6,1.4,1.3,2.3,2.2,2.6.7.3,1.5.2,2.4-.3,0,.9,0,1.7.2,2.5,0,.3.2.7.3,1h0c0,.2,0,.4.1.7,0,.5.2,1.4.6,2.4.2.5.5,1,.7,1.5.5,1,1,1.9,1.3,3.5.2,1.2,0,2.2-.4,2.7-.3.3-.6.4-1,.3-.8-.2-1.2-.6-1.2-1.4v-.8h0c-.2.3-.3.7-.3,1.1s.3,1,.7,1.4c.5.4,1.3.6,1.8.4.4-.1.8-.4,1-.7,0,.8,0,1.5.2,2.1h0v.2c0,.8.2,4.8-1.9,11.2-.2.7-.3,1.3-.3,2,0,1,.5,1.9,1.1,2.3-.4.3-.8.6-1,.9,0,0-.6.5-1.3,1.3-2.4,2.3-5.7,2.8-7.3,1.1-.6-.7-1-1.6-1.1-2.4,0-1.5.8-2.6,2.4-2.9,1-.2,1.6,0,1.9.4.4.4.6.9.7,1.4,0,.8-.4,1.7-1.4,1.9h0s.9,0,1.4-.5c.3-.4.4-.8.4-1.4h0c0-1.5-.8-2.5-1.9-2.8-1-.3-2-.2-2.8.5-.8.6-1.4,1.7-1.5,2.8v1c0,1.1.6,3.6,4,3.6s3.4-.7,4.3-1.4c-.2.3-.3.7-.4,1,0,0-.3.6-.5,1.4-.6.8-1.8,1.7-3.2,1.8-1.2,0-2.2-.4-3.1-1.4h-.1s.9,1.7,2.5,2.1c1,.2,2.8,0,3.8-1.1v3.2c.2,1.4.3,2.3.4,2.9,0,1,0,1.5-.3,2.3-.2.7-.9,1.1-1.5,1.1s-.8-.2-1-.6c0-.2-.2-.5-.2-.7,0-.8.3-1.3.3-1.4h-.1c-.6.6-.7,1.3-.7,1.7,0,.6.3,1.1.7,1.5s.9.5,1.3.5.9-.2,1.2-.5c-.2.4-.8,1.5-.7,3.2,0,.5.1,1,.3,1.5.3,1,1.1,2.6,2.7,2.3,1.5-.2,2.4-1.5,2.6-3.8.4.5.8.9,1.3,1.1h.4c.5.2,1.4.7,2.3,2.1.4.6.7,1.3.7,2,0,1.5-.7,3.2-2.7,3.4-.9,0-1.6,0-2.1-.6-.4-.4-.6-.9-.7-1.5,0-.4,0-.7.2-.9.8-1.3,1.6-.9,1.8-.8h0c0-.2,0,0,0,0-.4-.6-1-.8-1.5-.5-.7.3-1.3,1.2-1.2,2.4,0,.7.3,1.4.8,2,1.1,1.4,2.8,1.8,4.2,1.2h.8v-.2ZM179.27,61.67c-.2-.3-.3-.6-.3-1,0-1,.5-2,.5-2l.2-.2h0c.1,1.8,2.2,4.6,3.4,5.4.3.2.7.4,1.1.6,1.5.7,3,1.4,3.3,4.4,0,1,0,1.8-.4,2.3-.3.4-.7.6-1.3.6-.1-.6-.2-1.1-.4-1.7-.9-2.8-3-5-4.6-6.6-.7-.7-1.2-1.2-1.5-1.6h0v-.2ZM184.67,71.67h0c.2,1.2.1,2.5-.2,3.7-.3,1.1-.8,1.8-1.3,1.9-.6.2-1.3-.4-1.6-.8v-4.1c-.3-3.4-2.1-6.4-3-7.9-.1-.2-.2-.4-.3-.6-.3-.6-.5-1.1-.6-1.6,0-.4,0-.8.3-1.4.1-.3.3-.6.6-1v.6c.1,1.8,1.5,3.4,2.7,4.8.2.2.3.4.5.5,1.3,1.6,2.7,3.5,3.2,5.9h-.3,0ZM176.87,73.67h0c.9-.9,1-2.2,1-3.3s-.2-1.7-.5-2.6c-.2-.5-.3-1.1-.3-1.9v-2.6c0,.5.3,1,.5,1.4.4.6.7,1.2,1.1,1.8,1.4,2.2,2.3,3.8,2.5,7v2.7c-.1,2.5-1.2,3.4-2.2,3.4s-2.4-1.2-2.5-3.2c0-.9.1-1.8.5-2.7h-.1ZM180.77,54.87c-.1-.2-.2-.4-.2-.8,0-.8.2-2.1.6-3.6.6-2.5,1.3-5.5,1.1-8.8.2.5.5.8.8,1.1.1.6.5,2.6.7,4.7v3.3c-.4,2.4-1.1,4.1-1.9,4.4-.3,0-.7,0-1-.4h-.1v.1ZM187.27,50.57v-.8c-.1-1.8-.9-4.1-2-6.3.7-.2,1.3-.7,1.5-1.6.5.8,1.6,3,2,5.4v.4c.1,2.1-1.1,2.7-1.5,2.9h0ZM183.07,41.97c-1-.9-1.2-2.8-1.2-3.4v-.2c.2-.4.3-1,.3-1.6,0-1.6-1.1-3.5-1.5-4.2-.8-1.4-1.3-2.7-1.5-3.6.4.5.9,1.1,1.5,1.6h0c1.3,1.1,3,2.6,4,5.2.7,1.7,1.1,3.4,1.1,4.6s-.2,1.9-.9,2.1c-.8.2-1.4,0-1.9-.4h0l.1-.1ZM189.37,47.57c-.2-1.6-1-3.6-2.5-6.1,0-.6,0-1.4-.2-2.2-.5-2.1-1.1-3.8-1.9-5,1,1,2.1,2.2,2.8,3.2,1.3,1.9,2.8,5.1,2.9,7.6v.7c0,1.3-.2,1.8-1.2,2h0v-.2h.1ZM183.97,51.97c.2-1.4.3-2.8.2-4.3,0-1.6-.4-3.2-.8-4.5.5.3,1,.5,1.5.5.3.7,1.6,3.5,1.7,5.8v.8c0,1.4-.5,2.3-1.2,2.5-.5,0-1,0-1.4-.7h0v-.1Z"/>
  <path class="st1" d="M191.37,17.37c6.8,5.1,13.5-.8,18.9,0,3,.4,4.7,1.8,5.1,3.4-2.7.4-5.2,1.5-6.9,3.1-3.3,2.9,3.2,4.6,6,1.9,1.5-1.5,2.2-3.2,1.8-4.7,3.5-.2,7.1.9,8.5,2.9.5.7.6,1.4.4,2-2.1-.7-5-1.1-7.7.7-2.4,1.6-2.1,4.3,1.5,5.4s6.9-2.5,5.2-4.2c.5-.4.9-.9,1.2-1.4,3.5,1.5,4.3,3.2,4,4.8-2.9-.2-6.8.6-7,2.2-.2,1.7,2.4,2.8,4.8,1.9,1.1-.4,2.5-1.5,3-2.9,1.1.4,1.9.9,1.8,1.6-.3,2.8-4.2,2.6-4.2,2.6,0,0,2.4.7,4.4-.9s1-3.7-1.8-4.3c.2-1.4-.6-3.1-3.3-4.5-.4-.2-.9-.5-1.5-.7.6-1.3.3-2.9-2.8-4.2-2.3-1-4.6-1.3-6.7-1.2-.4-1.2-1.6-2.3-3.6-3.1-4.8-1.8-7.3.3-11.2.9-3.9.6-7.2,0-9-1.7-1.6-1.4.4-2.2,1.5-2.2s2.3.5,2.2,1.1c0,1.4-2,1.3-2,1.3,1.3,1.1,4.9-.9,1.8-2.3-3-1.4-6.8,1-4.6,2.7h.2v-.2ZM228.97,31.87c-1.3,2.4-5.4,3.9-6.1,2.1-.9-2.2,3.1-2.7,6.1-2.1ZM224.97,26.07c-.2.5-.6.9-1,1.3-1.8-1.5-5.1-.9-5.6.7-.5,1.6,2.8,1.4,4.6.4.3-.2.6-.4,1-.6,0,.2.2.4.2.6.2,2.8-5,3.4-7.1,1.2-2-2.2,3.1-5.4,8-3.6h-.1ZM219.57,28.47c-1.2-1.1,2.9-2.4,4.2-.9-1.4,1.1-3.4,1.5-4.2.9ZM210.87,22.57c1.3-.9,2.8-1.4,4.5-1.6.2,1.1-.2,2.4-1,3.5-2.1,2.7-7.6,1-3.5-1.9Z"/>
  <path class="st1" d="M233.47,34.27c-.6.4-.9.8-.9,1.2,0,.8.8,1.3,1.6,1.5.7.1,1.4,0,1.9-.3h0c-.2,0-1.2.4-2.3-.5-.2-.1-.2-.3-.2-.5,0-.4.3-.7.8-1,.6-.3,1.5-.5,2.7-.4,2.5.1,3.6,1.1,3.6,2.1s-.3.9-.8,1.3c-1.1.9-2.2,1.3-2.8,1.4h-.5c-.6.1-1.1.4-1.6.7-.4-1.5-1.4-2.2-3.4-2.3-2.1-.1-3,.9-3.3,1.5-.2.3-.3.6-.3,1,0,1,.7,1.8,1,2-.4-.1-.9-.2-1.5-.3-.6,0-1.2,0-1.7.3-.5.2-.8.6-.8.9s.1.7.9,1.1h.1s-.5-.4-.5-.8,0-.3.2-.4c.2-.3.7-.4,1.3-.4s1.6.2,1.9.7c.4.5.5.9.5,1.5s-.2,1-.3,1.9h0c-.1.8-.1,1.4,0,2-1.4-.6-3.5-.8-4.8-.6-1.9.2-3,1.3-3,1.3h.1c1-.6,2.4-1,3.9-1s3.4.5,4.1,1c.3.5.6.8.6.9.2.2.3.4.6.6-1.2-.4-3.1-.8-5.5-.8-4.4,0-4.9,1.6-5,2.3v.6c.2.7.9,1.4,2,1.8,1,.4,2.3.5,3.6.2,1.4-.2,2.2-.9,2.3-1.7h0c0-.4-.2-.7-.5-.9-.7-.4-1.7-.4-1.8-.4s0,0,0,0h0c1.3,0,1.9.6,1.8,1.2,0,.4-.3.7-.8.9-.4.2-1.2.4-2.4.3-2-.2-3.2-.8-3.1-1.8,0-.5.5-1.1,1.3-1.5,2-1.1,6.1-.9,9.3.5.8.5,1.7.8,1.7.8.4.2.8.4,1.3.5-.7.3-1.2.8-1.3,1.5,0,.4.1.8.4,1.2,2.9,3.9,2.8,6.5,2.8,7h0c-.2.5-.3,1-.2,1.4-.3-.2-.8-.3-1.3-.4-.7,0-1.6,0-2.3.3-.5.2-.8.5-.9.9,0,.2.1.5.4.8h.1c.1,0,0,0,0,0,0,0-.2-.2-.2-.5,0-.5.5-.8,1.5-.9.5,0,1,0,1.3.2.6.3.8.9.7,1.7-.2,1-.8,1.6-1.5,2.2-.3.3-.6.6-.8.9-.5.7-.6,1.2-.7,1.5,0,.2,0,.3-.1.4h0c-.2.2-.3.4-.4.6-.2.5-.3,1-.1,1.6-1.1-.3-2.1-.3-3,0-1.1.2-2,.8-2.7,1.7-.2.3-.4.6-.4.9,0,.8.7,1.6,1.9,2.2,1.1.5,2.4.7,3.5.5,1.4-.2,2-1,2-1.5s-.3-.9-.8-1.1c-1.4-.5-2.5.2-2.5.2h.1c.5-.2,1-.3,1.4,0,.5.2.9.6.9,1s0,.4-.4.6c-.9.5-2,.6-3.1.4-1.3-.3-2.3-1.1-2.3-2s.6-1.2,1.6-1.7c1.2-.5,2.7-.8,4-.6.8,1.7,3.4,2.9,6,2.8,3.1,0,5.4-1.5,5.5-3.2,0-.3,0-.6-.2-1-.5-1.3-2.4-1.6-3.9-1.6s-2.9.7-3,1.4c0,.5.2.9.6,1.1.9.5,2.2.4,2.3.4h0s-2.1-.2-1.9-1.3c.2-.9,1.5-1.3,2.7-1.2,1.4,0,2.8.7,2.8,1.9v.5c-.4,1.1-1.4,1.8-2.8,2-1.7.3-3.7,0-5.2-.9,0,0-2-1.5-1.9-3,0-.7.6-1.3,1.6-1.8.6-.3,1.2-.6,1.8-.8.3,0,.5-.2.8-.4,5-2,10.4-5.4,11-8.1v-.5c0-.8-.2-1.3-.9-1.6-.6-.3-1.4-.2-1.7-.2,0-.6-.2-1.1-.8-1.4s-1.8-.5-2.1-.5c-.1-.5-.5-1-1-1.2-.7-.3-1.3-.4-1.8-.4-.7,0-1.1.5-1.3.8-.2-.4-.4-.8-.6-1.2h0v-.2s-.2-.2-.2-.3c-.2-.3-.4-.6-.6-1.1,0-.2-.2-.5-.1-.7,0-1.1,1.2-2.3,3-2.3s3.3.9,3.5,1.7v.3c0,.3-.2.9-1.3,1.1-1.1.2-1.6-.5-1.6-.6s0,0-.1,0,0,0,0,0h0c0,.7.8,1,1.8,1s1.4,0,2-.4c.5-.2,1-.7,1-1.5s-1.2-2.2-3-2.6c-1.6-.4-3.2-.2-4.4.5-1,.6-1.6,1.4-1.7,2.3,0,.4,0,.9.2,1.3h-.1c-.3,0-.7-.2-1-.3h-.4s-.7-.3-.7-.9.2-.5.5-.8l.2-.2c1.2-1,2-1.7,4.8-2.3,3-.6,4.2-1.5,4.3-2.9v-.7c0-.5-.4-.9-1-1.1-.8-.4-1.8-.4-2.5-.3,0-.2,0-.5.1-.7.1-1.6-.9-2.6-1.8-2.9-.2,0-.4-.1-.6-.2,2.1-.6,3.4-1.8,3.5-3.2h0v-.4c0-1-1.1-1.8-2.7-2.1-1.8-.4-4,0-5.3.9h-.7v-.4ZM234.17,48.37c1.9-1,4.6-2.5,5.6-4.2.2-.4.3-.7.5-1.1.7,0,1.2.1,1.6.4.5.3.7.8.6,1.4-.2,1.9-2.1,2.4-4,2.9-.5,0-1,.2-1.4.4-1.5.5-4,2.3-4,3.4h-.3s-.8-.6-.7-1.3c0-.2.1-.5.4-.7.3-.3,1-.6,1.8-1.1h-.1v-.1ZM238.97,43.17h0c-.5,1.5-2.2,2.7-3.8,3.7-.2,0-.4.2-.6.4-1.5.9-3.1,1.9-3.2,3v.4c-.3-.2-.6-.5-.8-.6-.3-.4-.4-.6-.4-.9s.3-.6.7-1l.4-.4c1.1-.9,3.3-2.9,3.5-5v-2.7c.4-.2,1.2-.6,2-.5.7,0,1.3.5,1.7,1.2.5.8.7,1.5.4,2.3h.1v.1ZM228.37,40.27c0-1.2,1.6-2,3.1-2.1,1.2,0,2.7.5,2.9,2.1,0,.6.1,1.2,0,1.7-.1,2-1.3,3-3,4.4-.4.4-.8.7-1.3,1.1-.3.3-.5.6-.6.9,0-.4-.2-1-.1-1.6,0-.5.2-.9.3-1.2.3-.5.5-1.1.6-1.6,0-.7-.2-1.5-1.3-2h0c-.5-.6-.8-1.2-.7-1.7h.1ZM235.77,53.47c1,.2,2,1.2,2.6,2.7.2.6.3,1.3.2,2.1,0,1.3-.5,2.6-.7,3-.4.2-.8.5-1,.7,0-2-.9-4-1.7-5.5-.5-1-.9-1.8-.9-2.3s.1-.4.3-.5c.4-.2.8-.3,1.2-.2h0ZM244.97,57.97v.3c-.3,1.5-1.7,2.9-2.3,3.4-.3-.5-1.1-.9-2-1,1.4-1.4,2.2-2.9,2.3-4v-.5c.5,0,2.1.5,2,1.8ZM240.37,61.37c.8,0,1.2.5,1.2,1.3s-.5,1.8-1.3,2.9c-1.1,1.6-3.3,2.6-4.9,3.3h-.1c-.8.4-1.4.7-1.8,1.1.3-.6.8-1.5,1.8-2.3.5-.5,1.7-1.6,1.8-2.6,0-.4-.1-.7-.5-1h0c0-.5.2-1.7,1.5-2.3.6-.3,1.4-.4,2.4-.3h0l-.1-.1ZM247.27,59.27v.4c0,1.5-1.8,3.6-3.4,4.8-.9.7-2.2,1.5-3.4,2.1,1-.8,1.7-1.8,2.2-3.2.2-.5.2-1,.1-1.4,1.8-1.6,2.8-2.9,3-3.9,1.2,0,1.4.4,1.5,1.2h0ZM240.57,54.97c.9,0,1.5.7,1.6,1.5v.5c0,1.5-1.6,3.3-2,3.7-.7,0-1.3,0-1.9.3.5-.9.8-1.8.9-2.9,0-.9,0-1.8-.4-2.7.4-.4,1.1-.6,1.7-.5h0l.1.1Z"/>
  <path class="st1" d="M194.07,92.37c2.8-.8.4-2.5-1-1.8,0,0,1.6,0,1.3,1-.1.4-1,.7-2.1.7s-2.3-.7-.7-1.7c1.8-1,4.5-1.4,7.6-.7s4.6,2.3,8.8,1.3c1.8-.4,3-1.1,3.6-2,1.7.2,3.6,0,5.6-.5,2.8-.8,3.4-1.9,3.2-2.9.5,0,1-.3,1.4-.4,2.5-.9,3.5-2,3.7-3,2.4-.2,3.6-1.7,2.4-3-1.3-1.2-3.3-.9-3.3-.9,0,0,3.2,0,2.8,2.1,0,.5-.8.9-1.8,1-.1-1-1-1.9-1.8-2.3-1.7-.8-4.1-.2-4.3,1.1-.2,1.1,2.8,2,5.2,2,0,1.1-1.1,2.4-4.3,3.2-.1-.4-.4-.7-.7-1,1.7-1.1-.1-3.9-3.3-3.3s-4,2.5-2.5,3.7c1.7,1.4,4.1,1.3,6,.9,0,.5-.2.9-.8,1.4-1.6,1.4-4.8,2-7.5,1.6.6-1.1.4-2.3-.4-3.5-1.6-2.1-7.2-1.3-5.2,1,1.1,1.2,2.7,2.2,4.9,2.6-.7,1.1-2.3,2-4.9,2.1-4.5.2-8.5-4.4-15.1-1.2-2.2,1.1.3,3.1,3.1,2.2h0v.3h.1ZM220.17,79.97c1-1.2,3.9,0,4.4,1.9-2.5.2-5.7-.4-4.4-1.9ZM214.47,82.77c2.1-1.4,6.2-.7,5.4,1.3,0,.2-.2.3-.3.4-.2-.2-.4-.4-.6-.5-1.2-.8-3.8-1.1-3.8,0s2.6,1.8,4.4.8c.3.3.5.6.5,1-4.3,1-7.7-1.6-5.6-3h0ZM219.37,84.67c-1.4,1-4.4,0-3.2-.9.8-.5,2.3,0,3.2.9ZM211.17,86.37c.4.8.4,1.7,0,2.5-1.3-.2-2.4-.7-3.2-1.4-2.7-2.3,2.1-3.2,3.2-1.1h0Z"/>
  <path class="st1" d="M180.87,91.07c1.2,0,2.2-.3,3-.7.7,1.1,1.9,1.9,3.7,1.9s2.8-.6,3.5-1.3c.3.4.6.7.9,1,1.2.9,3.7,1.6,4.1-.2.4-1.8-1.1-2.3-1.2-2.3,0,0-.8-.2-.2,0,0,0,1.4.5,1,2.1-.3,1.2-3.1,1-4.5-.9,1.2-1.5,1.1-3.5,1.1-4.2,0-1-1.2-2.7-1.8.2-.4,1.8-.2,3,.3,3.9-.5.5-1.2.9-2,1.1-1.3.3-3.1-.2-4.2-1.6,3.3-1.8,3.5-5.2,3.4-6.6-.2-1.8-1.3-3.6-3.5-.3-1.3,1.9-1.8,4.8-.9,6.8-.3,0-.5.2-.8.2-7.6,1.9-11.5-5.3-7.3-9.3,4.2-3.9,8.2,1.2,5,5.1-1.6,1.9-6.2.9-4.5-3.2.7-1.7,3.7-2,3.4,1,0,.27.07.2.2-.2,1-2.7-2.5-4.4-3.9-.9s.5,4.8,2.6,5c2.1,0,4.7-2.8,3.3-6.2s-5.9-2.6-7.8.8,0,9.4,6.9,8.8c0,0,.2,0,.2,0ZM191.17,90.37c-.5-.8-.7-1.8-.4-3.1.8-4,2.8.6.4,3.1ZM184.37,89.57c-.9-1.4-1-3.5.4-6.2,3-5.4,5.3,3.4-.4,6.2Z"/>
  <path class="st0" d="M164.17,72.67c1.6-1.4,4-1.1,5.3.6s1,4.2-.6,5.6c-1.6,1.4-4,1.1-5.3-.6s-1-4.2.6-5.6Z"/>
  <path class="st1" d="M60.67,40.57c-.9-2.4-2.1-4.7-3.5-7-1.4-2.3-3.1-4.4-4.9-6.2-1.9-1.8-3.9-3.3-6.2-4.4s-4.8-1.7-7.5-1.7c-3.9,0-7.2.8-9.7,2.3-2.5,1.5-3.8,4.3-3.8,8.3s.6,4.4,1.7,6.1c1.1,1.7,2.7,3.3,4.6,4.6,1.9,1.3,4.1,2.5,6.5,3.6s4.9,2.2,7.4,3.4c2.5,1.1,5,2.4,7.4,3.7s4.6,2.9,6.5,4.7,3.4,4,4.6,6.4c1.1,2.4,1.7,5.3,1.7,8.7s-.6,6.7-1.9,9.3c-1.2,2.6-2.9,4.8-5,6.5s-4.6,2.9-7.4,3.8c-2.8.8-5.8,1.2-9,1.2s-3.5-.2-5.4-.5-3.7-.7-5.4-1.1c-1.7-.4-3.3-.8-4.7-1.1-1.4-.3-2.5-.5-3.4-.5s-1.5,0-2.2.4-1.4.5-2.2.8c-.6-4.2-1.3-8.3-2.2-12.3-.8-4-1.7-8.1-2.6-12.2l1.3-.8c1.2,2.6,2.7,5.2,4.5,8,1.8,2.8,3.8,5.3,6,7.6,2.2,2.3,4.7,4.2,7.3,5.8,2.7,1.5,5.5,2.3,8.7,2.3s3.9-.2,5.8-.7c1.9-.5,3.5-1.2,4.9-2.3,1.4-1,2.5-2.4,3.4-4,.8-1.7,1.2-3.7,1.2-6.1,0-3.5-1-6.3-3-8.7-2-2.3-4.5-4.3-7.5-6.1-3-1.7-6.2-3.3-9.7-4.8s-6.7-3.1-9.7-5c-3-1.8-5.5-4-7.5-6.5s-3-5.7-3-9.5.5-5.5,1.6-7.8c1-2.3,2.4-4.4,4.2-6s3.8-2.9,6.1-3.8c2.3-.9,4.8-1.3,7.4-1.3s4.9.2,6.9.6,4,.8,6,1.2c2,.4,4,.9,5.9,1.3s4,.6,6.2.6c0,3.3,0,6.5.2,9.7,0,3.1.3,6.3.7,9.4h-1.5.2v.1Z"/>
  <path class="st1" d="M81.97,68.57c0,3.8.5,7,1.4,9.5s2.1,4.5,3.5,6,2.9,2.5,4.6,3.1c1.6.6,3.1.9,4.5.9,2.9,0,5.5-.5,7.9-1.5s4.5-2.6,6.5-4.7l1.8,1.8c-2.8,3.2-5.7,5.7-8.7,7.4-3,1.7-6.5,2.5-10.7,2.5s-5.6-.6-8-1.9c-2.4-1.2-4.4-2.9-6-5-1.7-2.1-2.9-4.4-3.8-7.1-.9-2.6-1.3-5.4-1.3-8.2s.4-5.5,1.3-8.2c.9-2.6,2.1-5,3.8-7.1,1.7-2.1,3.7-3.7,6-5,2.4-1.2,5-1.9,8-1.9,5.5,0,9.9,1.6,13.2,4.7,3.3,3.2,5.4,8,6.1,14.5h-30.1s0,.2,0,.2ZM102.27,65.27c-.2-2-.5-3.8-.8-5.4-.3-1.6-.9-2.9-1.7-4-.8-1.1-1.8-1.9-3-2.4-1.2-.6-2.8-.8-4.8-.8s-2.8.4-4,1.2-2.2,1.8-3.1,3-1.5,2.6-2,4.1-.7,3-.7,4.4h20.1v-.1Z"/>
  <path class="st1" d="M128.07,68.57c0,3.8.5,7,1.4,9.5s2.1,4.5,3.5,6,2.9,2.5,4.6,3.1c1.6.6,3.1.9,4.5.9,2.9,0,5.5-.5,7.9-1.5,2.4-1,4.5-2.6,6.5-4.7l1.8,1.8c-2.8,3.2-5.7,5.7-8.7,7.4-3,1.7-6.5,2.5-10.7,2.5s-5.6-.6-8-1.9c-2.4-1.2-4.4-2.9-6-5-1.7-2.1-2.9-4.4-3.8-7.1-.9-2.6-1.3-5.4-1.3-8.2s.4-5.5,1.3-8.2c.9-2.6,2.1-5,3.8-7.1,1.7-2.1,3.7-3.7,6-5,2.4-1.2,5-1.9,8-1.9,5.5,0,9.9,1.6,13.2,4.7,3.3,3.2,5.4,8,6.1,14.5h-30.1v.2h0ZM148.27,65.27c-.2-2-.5-3.8-.8-5.4-.3-1.6-.9-2.9-1.7-4s-1.8-1.9-3-2.4c-1.2-.6-2.8-.8-4.8-.8s-2.8.4-4,1.2-2.2,1.8-3.1,3-1.5,2.6-2,4.1-.7,3-.7,4.4h20.1v-.1Z"/>
</svg>